<svg viewBox="0 0 94 20" xmlns="http://www.w3.org/2000/svg" class="Icon NavSecondary__logo--icon">
    <path fill="black" d="M65.46 3.495a6.504 6.504 0 1 0 0 13.009 6.504 6.504 0 0 0 0-13.009M25.13 4.958a6.504 6.504 0 1 0 0 10.084V16.1h2.397V3.9H25.13v1.058M91.35 3.9v1.058a6.504 6.504 0 1 0 0 10.084V16.1h2.397V3.9H91.35m-15.13.774c-1.395.893-2.602 2.471-2.602 5.271V16.1h2.602V9.945c0-4.047 4.171-3.826 4.171-3.826V3.518s-2.261-.066-4.171 1.156m-36.35.123a6.472 6.472 0 0 0-3.902-1.301 6.472 6.472 0 0 0-3.903 1.301A6.494 6.494 0 0 0 29.463 10v6.1h2.602V10a3.907 3.907 0 0 1 3.903-3.902A3.907 3.907 0 0 1 39.87 10v6.1h2.602V10a6.489 6.489 0 0 0-2.602-5.203m14.948-3.599v3.76a6.504 6.504 0 1 0 0 10.084V16.1h2.397V0h-1.198c-.662 0-1.199.536-1.199 1.198M6.498 3.496A6.475 6.475 0 0 0 2.39 4.958V3.9H-.007V20h1.198c.662 0 1.199-.536 1.199-1.198v-3.76A6.504 6.504 0 1 0 6.498 3.496m-.145 10.551A4.052 4.052 0 0 1 2.306 10a4.052 4.052 0 0 1 4.047-4.047A4.052 4.052 0 0 1 10.4 10a4.052 4.052 0 0 1-4.047 4.047m44.502 0A4.052 4.052 0 0 1 46.808 10a4.052 4.052 0 0 1 4.047-4.047A4.052 4.052 0 0 1 54.902 10a4.052 4.052 0 0 1-4.047 4.047m36.529 0A4.051 4.051 0 0 1 83.337 10a4.052 4.052 0 0 1 4.047-4.047A4.052 4.052 0 0 1 91.431 10a4.051 4.051 0 0 1-4.047 4.047m-66.22 0A4.051 4.051 0 0 1 17.117 10a4.052 4.052 0 0 1 4.047-4.047A4.052 4.052 0 0 1 25.211 10a4.051 4.051 0 0 1-4.047 4.047m44.29-.145A3.907 3.907 0 0 1 61.552 10a3.907 3.907 0 0 1 3.902-3.903A3.908 3.908 0 0 1 69.357 10a3.907 3.907 0 0 1-3.903 3.902"></path>
</svg>
